# xmcd
#
# Track frame offsets: 
#        150
#        14356
#        28572
#        40548
#        59039
#        76549
#        85880
#        101886
#        117025
#        130956
#        143121
#        161195
#        173090
#        183846
#        195772
#        215004
#        226523
#        236240
#        248332
#        264653
#        280465
#        294855
#        308155
#        321925
#        336226
#
# Disc length: 4672 seconds
#
# Revision: 0
# Processed by: cddbd v1.5.2PL0 Copyright (c) Steve Scherf et al.
# Submitted via: ExactAudioCopyFreeDBPlugin 1.0
#
DISCID=55123e19
DTITLE=Bobby Bare - Cowboys And Daddys and Me And McDill
DYEAR=2011
DGENRE=Country
TTITLE0=The Cowboy And The Poet (Faster Horses)
TTITLE1=Cowboys And Daddys
TTITLE2=High Plains Jamboree
TTITLE3=Chester
TTITLE4=Up Against The Wall Redneck Mother
TTITLE5=The Stranger
TTITLE6=Amarillo Highway
TTITLE7=Speckled Pony
TTITLE8=Pretty Painted Ladies
TTITLE9=He's A Cowboy
TTITLE10=Calgary Snow
TTITLE11=Last Dance At The Old Texas Moon
TTITLE12=If You Think I'm Crazy Now (You Should Have Seen Me When I Wa
TTITLE12=s A Kid)
TTITLE13=Hillbilly Hell
TTITLE14=Don't Think You're Too Good For Country Music (Just Because Y
TTITLE14=ou Can Rock And Roll)
TTITLE15=Till I Get On My Feet
TTITLE16=Don't Turn Out The Light
TTITLE17=Wilma Lou
TTITLE18=Look Who I'm Cheating On Tonight
TTITLE19=You Made A Believer Out Of Me
TTITLE20=The Woman In Every Man's Life
TTITLE21=Can't Seem To Get Nowhere
TTITLE22=Tired Of The Road Joe
TTITLE23=Daddy What If
TTITLE24=Marie Lavaux
EXTD=
EXTT0=
EXTT1=
EXTT2=
EXTT3=
EXTT4=
EXTT5=
EXTT6=
EXTT7=
EXTT8=
EXTT9=
EXTT10=
EXTT11=
EXTT12=
EXTT13=
EXTT14=
EXTT15=
EXTT16=
EXTT17=
EXTT18=
EXTT19=
EXTT20=
EXTT21=
EXTT22=
EXTT23=
EXTT24=
PLAYORDER=
